Coordinates
version=1
nRows=7
nColumns=63
inDegrees=yes

Units are S.I. units (second, meters, Newtons, ...)
If the header above contains a line with 'inDegrees', this indicates whether rotational values are in degrees (yes) or radians (no).

endheader
time	pelvis_tilt	pelvis_list	pelvis_rotation	pelvis_tx	pelvis_ty	pelvis_tz	hip_flexion_r	hip_adduction_r	hip_rotation_r	knee_angle_r	knee_angle_r_beta	ankle_angle_r	subtalar_angle_r	mtp_angle_r	hip_flexion_l	hip_adduction_l	hip_rotation_l	knee_angle_l	knee_angle_l_beta	ankle_angle_l	subtalar_angle_l	mtp_angle_l	L5_S1_Flex_Ext	L5_S1_Lat_Bending	L5_S1_axial_rotation	L4_L5_Flex_Ext	L4_L5_Lat_Bending	L4_L5_axial_rotation	L3_L4_Flex_Ext	L3_L4_Lat_Bending	L3_L4_axial_rotation	L2_L3_Flex_Ext	L2_L3_Lat_Bending	L2_L3_axial_rotation	L1_L2_Flex_Ext	L1_L2_Lat_Bending	L1_L2_axial_rotation	L1_T12_Flex_Ext	L1_T12_Lat_Bending	L1_T12_axial_rotation	Abs_r3	Abs_r2	Abs_r1	Abs_t1	Abs_t2	neck_flexion	neck_bending	neck_rotation	arm_flex_r	arm_add_r	arm_rot_r	elbow_flex_r	pro_sup_r	wrist_flex_r	wrist_dev_r	arm_flex_l	arm_add_l	arm_rot_l	elbow_flex_l	pro_sup_l	wrist_flex_l	wrist_dev_l
      1.85000000	      5.92077879	     -1.28588557	    120.09941505	      0.05204046	      0.97319188	      0.49970717	      7.02827055	      1.42673661	    -25.83443392	     19.24518605	      0.33589186	     30.25536645	     -4.46212169	      0.00000000	      9.23408746	     -5.52875823	      2.50489332	     15.94905714	      0.27836356	     37.70781797	     17.35586287	      0.00000000	     -0.09537791	      0.44150629	     -1.71315321	     -0.17712632	      0.58720336	     -1.82022529	     -0.15669637	      1.07347839	     -1.82022529	     -0.10900741	      1.07347839	     -1.49900906	     -0.08856793	      0.90031962	     -1.39193698	     -0.05449894	      0.68389324	     -1.28486491	     -0.68127488	      4.99440742	     -9.52804420	      0.00000000	      0.00000000	     -1.21046227	     -0.55589715	     -7.04316423	      6.97719160	    -23.05701538	     18.72401933	     99.50273492	     87.12605137	      5.56025764	     24.92254039	     -1.84191511	    -12.92516802	     15.74014510	     88.17811157	     88.11805852	     -7.38753752	     12.90926722
      1.86666667	      5.71849183	     -1.83836248	    119.44569273	      0.05386577	      0.97346117	      0.49909570	      7.05945242	      1.39601824	    -24.78707559	     18.48028990	      0.32254191	     29.33815013	     -5.56775301	      0.00000000	      8.76355325	     -5.17060315	      2.50303370	     14.52000298	      0.25342186	     36.84890110	     17.14818254	      0.00000000	     -0.08058855	      0.40775390	     -2.00434880	     -0.14966099	      0.54231269	     -2.12962060	     -0.13239893	      0.99141284	     -2.12962060	     -0.09210465	      0.99141284	     -1.75380520	     -0.07483453	      0.83149176	     -1.62853340	     -0.04604830	      0.63161079	     -1.50326160	     -0.57563594	      4.61259369	    -11.14758672	      0.00000000	      0.00000000	     -0.80928057	     -0.64676210	     -4.68488391	      8.96477423	    -22.04204071	     17.87621238	    104.27397004	     85.07050532	      8.19316913	     22.89096414	     -2.17286710	    -12.99828168	     14.06906215	     87.42323208	     88.08683208	     -6.84081010	     14.09827175
      1.88333333	      5.52176484	     -2.46968687	    118.46946532	      0.05645823	      0.97344292	      0.49888905	      7.41986268	      1.21920752	    -23.78927817	     18.07613220	      0.31548802	     28.92009154	     -6.09150457	      0.00000000	      8.50902548	     -4.84033931	      2.15363037	     13.35787359	      0.23313888	     36.01224684	     16.84075936	      0.00000000	     -0.07374749	      0.37531477	     -2.22702897	     -0.13695647	      0.49916864	     -2.36621829	     -0.12115976	      0.91254033	     -2.36621829	     -0.08428601	      0.91254033	     -1.94865035	     -0.06848192	      0.76534188	     -1.80946104	     -0.04213932	      0.58136258	     -1.67027173	     -0.52677098	      4.24563572	    -12.38606705	      0.00000000	      0.00000000	     -0.56252027	     -0.58095110	     -2.19612840	     11.44186811	    -20.89781353	     17.83230196	    108.69375907	     80.71894323	      8.70741573	     21.55640826	     -2.45281717	    -13.07036120	     12.38946596	     86.10045513	     88.18093180	     -6.16375754	     15.93360425
      1.90000000	      5.38078004	     -3.15549979	    117.44807486	      0.05927278	      0.97304554	      0.49943263	      8.16007442	      0.94364587	    -22.91594295	     18.12764462	      0.31638708	     28.87595571	     -6.41988499	      0.00000000	      8.66382205	     -4.56375014	      1.58325602	     12.73268987	      0.22222736	     35.34180202	     16.56793617	      0.00000000	     -0.05377281	      0.34776036	     -2.37329505	     -0.09986149	      0.46252128	     -2.52162599	     -0.08834335	      0.84554454	     -2.52162599	     -0.06145695	      0.84554454	     -2.07663317	     -0.04993343	      0.70915292	     -1.92830223	     -0.03072578	      0.53868080	     -1.77997129	     -0.38409382	      3.93393474	    -13.19955510	      0.00000000	      0.00000000	     -0.64447925	     -0.49679766	     -0.24965359	     13.90774445	    -20.05345074	     18.44977118	    113.22114855	     73.47634481	      5.83359101	     21.76765157	     -2.50583417	    -13.09249288	     10.95091722	     84.03609923	     88.36966125	     -4.98492040	     18.11397005
      1.91666667	      5.13748543	     -3.77079445	    116.15230336	      0.06245815	      0.97253513	      0.50021967	      9.03654196	      0.48821330	    -22.24674070	     18.62003280	      0.32498088	     29.24853777	     -5.86304082	      0.00000000	      8.85231327	     -4.27125991	      0.71291367	     12.41434548	      0.21667120	     34.80152997	     16.12561252	      0.00000000	     -0.03316653	      0.30789653	     -2.38003269	     -0.06159356	      0.40950239	     -2.52878474	     -0.05448929	      0.74861963	     -2.52878474	     -0.03790603	      0.74861963	     -2.08252861	     -0.03079844	      0.62786261	     -1.93377656	     -0.01895136	      0.47693173	     -1.78502452	     -0.23690521	      3.48298714	    -13.23702782	      0.00000000	      0.00000000	     -1.13570303	     -0.20655708	      0.93999132	     15.72247806	    -19.36515297	     18.58467850	    117.81886661	     70.71652334	      3.02950415	     20.95238347	     -2.22347864	    -13.38041474	     10.41445297	     81.58418081	     88.53923084	     -4.56445604	     20.27455848
      1.93333333	      4.92791982	     -4.17142554	    115.07673738	      0.06503573	      0.97191769	      0.50124434	      9.81898643	      0.06078259	    -21.99202162	     19.32410316	      0.33726923	     29.69516581	     -5.13470349	      0.00000000	      9.06109314	     -4.08964644	     -0.11055413	     12.40466126	      0.21650218	     34.51960307	     15.81463154	      0.00000000	     -0.01591973	      0.27754386	     -2.34671126	     -0.02956454	      0.36913333	     -2.49338071	     -0.02615453	      0.67482014	     -2.49338071	     -0.01819466	      0.67482014	     -2.05337235	     -0.01478306	      0.56596744	     -1.90670290	     -0.00909654	      0.42991544	     -1.76003344	     -0.11371306	      3.13963163	    -13.05170400	      0.00000000	      0.00000000	     -2.01965774	     -0.03586515	      1.06717480	     16.61084404	    -19.24255466	     18.47971914	    122.56268396	     69.20632219	     -0.47642794	     19.40655957	     -1.73138359	    -13.59041204	     10.22944685	     79.09327215	     88.72809466	     -3.65621932	     22.35381134
      1.95000000	      4.81665854	     -4.46842328	    114.09261230	      0.06703817	      0.97094884	      0.50225768	     10.63410471	     -0.40875380	    -22.34829455	     20.33798529	      0.35496481	     30.30189851	     -3.56462590	      0.00000000	      9.33510389	     -4.04646416	     -1.02794227	     12.62303011	      0.22031344	     34.57807307	     15.69499014	      0.00000000	      0.01709431	      0.26620596	     -2.26472729	      0.03174585	      0.35405393	     -2.40627274	      0.02808425	      0.64725318	     -2.40627274	      0.01953709	      0.64725318	     -1.98163638	      0.01587378	      0.54284720	     -1.84009092	      0.00976769	      0.41235303	     -1.69854547	      0.12210298	      3.01137508	    -12.59573376	      0.00000000	      0.00000000	     -3.08257754	      0.18054859	      0.83772571	     16.33749986	    -19.70164582	     17.89537381	    127.34061289	     73.60287889	     -3.91765413	     16.70804806	     -1.14283864	    -13.87725292	     10.53092943	     77.30872489	     88.87222685	     -2.61802198	     24.24880702
